<?xml version="1.0" encoding="UTF-8" standalone="no"?><!DOCTYPE svg PUBLIC "-//W3C//DTD SVG 1.1//EN" "http://www.w3.org/Graphics/SVG/1.1/DTD/svg11.dtd"><svg width="100%" height="100%" viewBox="0 0 3316 860" version="1.1" xmlns="http://www.w3.org/2000/svg" xmlns:xlink="http://www.w3.org/1999/xlink" xml:space="preserve" xmlns:serif="http://www.serif.com/" style="fill-rule:evenodd;clip-rule:evenodd;stroke-linejoin:round;stroke-miterlimit:2;"><rect id="logo-white-blue" serif:id="logo white/blue" x="0" y="0" width="3315.47" height="859.001" style="fill:none;"/><g transform="matrix(4.16667,0,0,4.16667,-781.885,29.7031)"><text x="382.978px" y="146.406px" style="font-family:'Avenir-Book', 'Avenir';font-size:144px;fill:#fff;">Holi</text><text x="641.458px" y="146.406px" style="font-family:'Avenir-Book', 'Avenir';font-size:144px;fill:#2e9cca;">daze</text></g><rect x="161.201" y="151.792" width="125.785" height="533.225" style="fill:#fff;"/><rect x="568.641" y="151.792" width="125.785" height="533.225" style="fill:#fff;"/><path d="M460.247,445.82l-32.556,-121.499l-246.713,66.107l32.555,121.499l246.714,-66.107Z" style="fill:#fff;"/><path d="M628.914,508.695l32.556,-121.499l-234.651,-62.875l-32.555,121.499l234.65,62.875Z" style="fill:#fff;"/><rect x="354.882" y="531.095" width="66.455" height="59.19" style="fill:#2e9cca;"/><rect x="354.882" y="610.916" width="66.455" height="59.19" style="fill:#2e9cca;"/><rect x="441.906" y="531.095" width="66.455" height="59.19" style="fill:#2e9cca;"/><rect x="441.906" y="610.916" width="66.455" height="59.19" style="fill:#2e9cca;"/></svg>