<?xml version="1.0" encoding="UTF-8" standalone="no"?><!DOCTYPE svg PUBLIC "-//W3C//DTD SVG 1.1//EN" "http://www.w3.org/Graphics/SVG/1.1/DTD/svg11.dtd"><svg width="100%" height="100%" viewBox="0 0 5334 3000" version="1.1" xmlns="http://www.w3.org/2000/svg" xmlns:xlink="http://www.w3.org/1999/xlink" xml:space="preserve" xmlns:serif="http://www.serif.com/" style="fill-rule:evenodd;clip-rule:evenodd;stroke-linejoin:round;stroke-miterlimit:2;"><rect id="default-image" serif:id="default image" x="0" y="0" width="5333.33" height="3000" style="fill:#25274d;"/><g transform="matrix(4.16667,0,0,4.16667,218.115,946.37)"><text x="382.978px" y="146.406px" style="font-family:'Avenir-Book', 'Avenir';font-size:144px;fill:#fff;">Holi</text><text x="641.458px" y="146.406px" style="font-family:'Avenir-Book', 'Avenir';font-size:144px;fill:#2e9cca;">daze</text></g><rect x="1161.2" y="1068.46" width="125.785" height="533.225" style="fill:#fff;"/><rect x="1568.64" y="1068.46" width="125.785" height="533.225" style="fill:#fff;"/><path d="M1460.25,1362.49l-32.556,-121.499l-246.713,66.107l32.555,121.499l246.714,-66.107Z" style="fill:#fff;"/><path d="M1628.91,1425.36l32.556,-121.499l-234.651,-62.874l-32.555,121.499l234.65,62.874Z" style="fill:#fff;"/><rect x="1354.88" y="1447.76" width="66.455" height="59.19" style="fill:#2e9cca;"/><rect x="1354.88" y="1527.58" width="66.455" height="59.19" style="fill:#2e9cca;"/><rect x="1441.91" y="1447.76" width="66.455" height="59.19" style="fill:#2e9cca;"/><rect x="1441.91" y="1527.58" width="66.455" height="59.19" style="fill:#2e9cca;"/></svg>